<svg width="1552" height="6207" viewBox="0 0 1552 6207" fill="none" xmlns="http://www.w3.org/2000/svg">
<path d="M470.396 13C458.892 21.6061 444.534 36.0072 420.749 59.036C401.148 78.0126 381.135 115.148 354.495 155.476C289.497 253.87 287.376 279.572 275.83 309.131C266.893 332.009 254.249 374.541 236.237 433.573C188.411 590.313 199.413 614.041 197.229 635.664C194.17 665.954 190.764 703.388 190.007 798.985C189.688 839.281 200.797 861.93 205.857 885.781C209.925 904.956 213.771 928.27 222.42 947.061C229.884 963.277 235.394 984.491 249.06 1016.9C263.616 1051.43 269.991 1072.45 279.354 1089.77C288.414 1106.53 298.793 1127.2 313.216 1146C324.647 1160.89 326.212 1176.29 328.396 1184.2C330.567 1192.07 307.616 1193.63 288.176 1192.2C265.529 1190.54 254.206 1177.8 249.86 1172.76C237.254 1158.15 297.323 1170.54 314.643 1176.31C323.271 1179.19 333.391 1180.66 342.754 1178.52C359.415 1174.71 356.484 1146.15 362.971 1128.83C365.134 1124.48 367.988 1120.2 370.172 1115.85C372.356 1111.51 373.783 1107.22 379.578 1098.49" stroke="black" stroke-width="25" stroke-linecap="round"/>
<path d="M1046.05 1869C1048.9 1877.61 1057.55 1894.86 1064.04 1912.18C1070.95 1930.63 1079.18 1946.76 1084.95 1964.08C1091.58 1983.99 1102.18 2015.87 1114.49 2064.15C1122.68 2096.31 1126.75 2125.45 1131.81 2150.73C1137.07 2177 1136.87 2197.59 1140.46 2271.3C1143.27 2329.12 1141.19 2439.08 1134.77 2528.51C1128.35 2617.94 1115.5 2683.59 1107.46 2720.98C1094.35 2781.92 1083.59 2818.78 1072.04 2853.44C1054.47 2906.19 1036.02 2950.08 1026.63 2975.98C1010.64 3020.11 999.948 3039.42 988.444 3060.36C970.395 3093.2 958.172 3118.74 950.214 3136.77C940.704 3158.33 927.899 3180.67 914.925 3204.5C895.776 3239.67 884.653 3259.98 872.392 3275.92C850.213 3304.75 860.089 3180.75 860.802 3191.54C862.039 3210.25 868.738 3235.42 873.754 3257.15C874.846 3261.88 878.771 3265.78 882.382 3268.7C897.102 3280.6 920.547 3268.8 941.457 3260.85C950.82 3255.83 959.512 3251.46 968.14 3249.3C972.486 3248.57 976.768 3248.57 981.179 3248.57" stroke="black" stroke-width="25" stroke-linecap="round"/>
<path d="M234.094 3977.45C231.688 3991.95 217.183 4021.04 204.974 4050.23C193.101 4078.62 185.549 4108.5 181.868 4138.9C176.134 4186.25 170.971 4249.32 169.696 4423.82C169.192 4492.68 180.593 4540.88 189.121 4575.03C199.316 4615.85 245.902 4722.67 278.957 4782.73C304.941 4829.94 323.893 4864.07 374.77 4919.91C433.969 4984.87 455.094 5012.33 468.506 5041.52C471.921 5048.96 476.961 5056.06 481.844 5063.39C486.728 5070.71 491.539 5077.93 480.787 5081.65C445.445 5093.87 409.101 5082.96 404.181 5079.32C376.765 5059.01 467.194 5097.46 495.183 5108.43C523.991 5119.73 535.272 5056.36 547.481 5021.11C549.923 5012.55 552.328 5005.33 554.77 4998.01C557.212 4990.68 559.617 4983.47 569.384 4961.45" stroke="black" stroke-width="25" stroke-linecap="round"/>
<path d="M1274.68 6121.11C1003.87 6121.11 455.019 6108.53 378.641 6067.24C292.362 6020.6 188.03 5962.45 111.652 5911.53C73.6061 5886.16 41.5674 5854.31 22.4968 5803.68C-4.32049 5732.48 28.5994 5663.61 66.55 5616.12C171.963 5484.22 263.55 5460.12 339.928 5418.84C411.705 5380.04 504.985 5377.36 657.073 5361.53C1081.5 5317.36 1172.46 5389.94 1274.3 5418.55C1377.1 5447.43 1445.93 5516.95 1500.19 5586.85C1550.22 5651.3 1541.67 5751.91 1532.23 5834.48C1521.14 5931.42 1408.55 5974.65 1332.17 6009.74C1253.24 6046.01 1179.7 6076.49 1100.18 6101.95C1008.99 6131.14 919.199 6152.77 804.68 6162.4C708.253 6170.51 607.585 6190.91 309.606 6194.25C225.644 6195.19 181.546 6140.57 114.799 6080.02C50.0594 6021.29 41.5674 5930.79 38.2301 5696.12C36.6307 5583.66 117.469 5511.23 171.534 5434.86C230.059 5352.18 320.762 5314.04 412.969 5297.93C499.041 5282.89 587.751 5269.42 917.388 5266.08C1047.54 5264.76 1121.73 5313.66 1198.11 5358.1C1274.57 5402.58 1350.58 5453.26 1404.83 5529.64C1452.09 5596.15 1458.9 5682.11 1484.36 5758.48C1497.04 5796.53 1503.52 5860.04 1497.23 5936.22C1446.5 6019.28 1370.41 6070 1294.03 6133.6C1274.87 6146.48 1255.99 6152.77 1217.46 6178.33" stroke="#FF2222" stroke-width="25" stroke-linecap="round"/>
</svg>
